<svg width="46" height="46" viewBox="0 0 46 46" fill="none" xmlns="http://www.w3.org/2000/svg">
<path fill-rule="evenodd" clip-rule="evenodd" d="M25.507 27.025C25.852 27.462 26.266 27.9565 26.266 27.9565C28.8075 27.876 29.785 26.2085 29.785 26.2085C29.785 22.5055 28.129 19.504 28.129 19.504C26.473 18.262 24.8975 18.2965 24.8975 18.2965L24.7365 18.4805C26.6915 19.0785 27.6 19.941 27.6 19.941C26.404 19.2855 25.231 18.9635 24.1385 18.837C23.3105 18.745 22.517 18.768 21.8155 18.86C21.7553 18.86 21.7038 18.8688 21.6458 18.8786L21.62 18.883C21.2175 18.9175 20.24 19.067 19.0095 19.6075C18.584 19.803 18.331 19.941 18.331 19.941C18.331 19.941 19.2855 19.0325 21.3555 18.4345L21.2405 18.2965C21.2405 18.2965 19.665 18.262 18.009 19.504C18.009 19.504 16.353 22.5055 16.353 26.2085C16.353 26.2085 17.319 27.876 19.8605 27.9565C19.8605 27.9565 20.286 27.439 20.631 27.002C19.1705 26.565 18.6185 25.645 18.6185 25.645C18.6185 25.645 18.7335 25.7255 18.9405 25.8405C18.952 25.852 18.9635 25.8635 18.9865 25.875C19.0038 25.8865 19.021 25.8951 19.0383 25.9038C19.0555 25.9124 19.0728 25.921 19.09 25.9325C19.3775 26.0935 19.665 26.22 19.9295 26.3235C20.401 26.5075 20.9645 26.6915 21.62 26.818C22.4825 26.979 23.4945 27.0365 24.5985 26.8295C25.139 26.7375 25.691 26.5765 26.266 26.335C26.6685 26.1855 27.117 25.967 27.5885 25.6565C27.5885 25.6565 27.0135 26.5995 25.507 27.025ZM19.7455 23.8625C19.7455 23.161 20.263 22.586 20.9185 22.586C21.574 22.586 22.103 23.161 22.0915 23.8625C22.0915 24.564 21.574 25.139 20.9185 25.139C20.2745 25.139 19.7455 24.564 19.7455 23.8625ZM23.943 23.8625C23.943 23.161 24.4605 22.586 25.116 22.586C25.7715 22.586 26.289 23.161 26.289 23.8625C26.289 24.564 25.7715 25.139 25.116 25.139C24.472 25.139 23.943 24.564 23.943 23.8625Z" fill="white"/>
<path fill-rule="evenodd" clip-rule="evenodd" d="M23 0C35.7025 0 46 10.2975 46 23C46 35.7025 35.7025 46 23 46C10.2975 46 0 35.7025 0 23C0 10.2975 10.2975 0 23 0ZM12.9375 15.3065C12.9375 13.9955 13.9955 12.9375 15.295 12.9375H30.705C32.0045 12.9375 33.0625 13.9955 33.0625 15.3065V35.9375L30.59 33.7525L29.1985 32.4645L27.7265 31.096L28.336 33.2235H15.295C13.9955 33.2235 12.9375 32.1655 12.9375 30.8545V15.3065Z" fill="white"/>
</svg>
