<svg width="45" height="46" viewBox="0 0 45 46" fill="none" xmlns="http://www.w3.org/2000/svg">
<path d="M22.5 27.025C20.3906 27.025 18.5625 25.3 18.5625 23C18.5625 20.8437 20.25 18.975 22.5 18.975C24.6094 18.975 26.4375 20.7 26.4375 23C26.4375 25.1562 24.6094 27.025 22.5 27.025Z" fill="white"/>
<path fill-rule="evenodd" clip-rule="evenodd" d="M27.2812 13.225H17.7188C16.5938 13.3687 16.0312 13.5125 15.6094 13.6562C15.0469 13.8 14.625 14.0875 14.2031 14.5187C13.8693 14.86 13.7116 15.2012 13.5209 15.6137C13.4707 15.7224 13.418 15.8363 13.3594 15.9562C13.3376 16.023 13.3125 16.0931 13.2856 16.1683C13.1385 16.5792 12.9375 17.1404 12.9375 18.1125V27.8875C13.0781 29.0375 13.2187 29.6125 13.3594 30.0437C13.5 30.6187 13.7812 31.05 14.2031 31.4812C14.537 31.8225 14.8708 31.9837 15.2743 32.1786C15.3807 32.23 15.492 32.2837 15.6094 32.3437C15.6746 32.366 15.7433 32.3917 15.8168 32.4192C16.2187 32.5696 16.7678 32.775 17.7188 32.775H27.2812C28.4062 32.6312 28.9688 32.4875 29.3906 32.3437C29.9531 32.2 30.375 31.9125 30.7969 31.4812C31.1307 31.14 31.2884 30.7988 31.4791 30.3863C31.5293 30.2775 31.5819 30.1637 31.6406 30.0437C31.6624 29.977 31.6875 29.9069 31.7144 29.8317C31.8615 29.4208 32.0625 28.8596 32.0625 27.8875V18.1125C31.9219 16.9625 31.7812 16.3875 31.6406 15.9562C31.5 15.3812 31.2187 14.95 30.7969 14.5187C30.463 14.1775 30.1292 14.0163 29.7257 13.8214C29.6195 13.7701 29.5078 13.7161 29.3906 13.6562C29.3254 13.634 29.2567 13.6083 29.1832 13.5808C28.7813 13.4304 28.2322 13.225 27.2812 13.225ZM22.5 16.8187C19.125 16.8187 16.4531 19.55 16.4531 23C16.4531 26.45 19.125 29.1812 22.5 29.1812C25.875 29.1812 28.5469 26.45 28.5469 23C28.5469 19.55 25.875 16.8187 22.5 16.8187ZM30.0938 16.675C30.0938 17.4689 29.4641 18.1125 28.6875 18.1125C27.9109 18.1125 27.2812 17.4689 27.2812 16.675C27.2812 15.8811 27.9109 15.2375 28.6875 15.2375C29.4641 15.2375 30.0938 15.8811 30.0938 16.675Z" fill="white"/>
<path fill-rule="evenodd" clip-rule="evenodd" d="M0 23C0 10.2975 10.0736 0 22.5 0C34.9264 0 45 10.2975 45 23C45 35.7025 34.9264 46 22.5 46C10.0736 46 0 35.7025 0 23ZM17.7188 11.0687H27.2812C28.5469 11.2125 29.3906 11.3562 30.0938 11.6437C30.9375 12.075 31.5 12.3625 32.2031 13.0812C32.9062 13.8 33.3281 14.5187 33.6094 15.2375C33.8906 15.9562 34.1719 16.8187 34.1719 18.1125V27.8875C34.0312 29.1812 33.8906 30.0437 33.6094 30.7625C33.1875 31.625 32.9062 32.2 32.2031 32.9187C31.5 33.6375 30.7969 34.0687 30.0938 34.3562C29.3906 34.6437 28.5469 34.9312 27.2812 34.9312H17.7188C16.4531 34.7875 15.6094 34.6437 14.9063 34.3562C14.0625 33.925 13.5 33.6375 12.7969 32.9187C12.0938 32.2 11.6719 31.4812 11.3906 30.7625C11.1094 30.0437 10.8281 29.1812 10.8281 27.8875V18.1125C10.9688 16.8187 11.1094 15.9562 11.3906 15.2375C11.8125 14.375 12.0938 13.8 12.7969 13.0812C13.5 12.3625 14.2031 11.9312 14.9063 11.6437C15.6094 11.3562 16.4531 11.0687 17.7188 11.0687Z" fill="white"/>
</svg>
