<svg width="44" height="46" viewBox="0 0 44 46" fill="none" xmlns="http://www.w3.org/2000/svg">
<path fill-rule="evenodd" clip-rule="evenodd" d="M0 23C0 10.2975 9.84974 0 22 0C34.1503 0 44 10.2975 44 23C44 35.7025 34.1503 46 22 46C9.84974 46 0 35.7025 0 23ZM30.3875 16.5312C31.35 16.3875 32.175 16.2437 33 15.8125C32.45 16.8188 31.625 17.6812 30.6625 18.2563C30.9375 25.0125 26.2625 32.3438 17.875 32.3438C15.4 32.3438 13.0625 31.4812 11 30.1875C13.3375 30.475 15.8125 29.7562 17.4625 28.4625C15.4 28.4625 13.75 27.025 13.2 25.1562C13.8875 25.3 14.575 25.1562 15.2625 25.0125C13.2 24.4375 11.6875 22.425 11.6875 20.2688C12.375 20.5562 13.0625 20.8438 13.75 20.8438C11.825 19.4062 11.1375 16.675 12.375 14.5188C14.7125 17.3938 18.0125 19.2625 21.725 19.4062C21.0375 16.5312 23.2375 13.6562 26.125 13.6562C27.3625 13.6562 28.6 14.2312 29.425 15.0938C30.525 14.8063 31.4875 14.5187 32.3125 13.9437C32.0375 15.0938 31.35 15.9563 30.3875 16.5312Z" fill="white"/>
</svg>
